<svg xmlns="http://www.w3.org/2000/svg" style="display:none">
  <symbol id="icon-logo" viewBox="0 0 48 48">
    <rect x="4" y="4" width="40" height="40" rx="4" fill="none" stroke="currentColor" stroke-width="3"/>
    <path d="M10 30 20 18l6 7 8-10 4 5" fill="none" stroke="currentColor" stroke-width="3" stroke-linecap="square" stroke-linejoin="miter"/>
    <circle cx="34" cy="15" r="3" fill="currentColor"/>
  </symbol>
  <symbol id="icon-arrow" viewBox="0 0 24 24">
    <path d="M6 12h11" fill="none" stroke="currentColor" stroke-width="2.2" stroke-linecap="square"/>
    <path d="m13 7 5 5-5 5" fill="none" stroke="currentColor" stroke-width="2.2" stroke-linecap="square" stroke-linejoin="miter"/>
  </symbol>
  <symbol id="icon-check" viewBox="0 0 24 24">
    <path d="M4.5 12.5 9.5 17.5 19.5 7.5" fill="none" stroke="currentColor" stroke-width="2.4" stroke-linecap="square" stroke-linejoin="miter"/>
  </symbol>
  <symbol id="icon-schedule" viewBox="0 0 24 24">
    <rect x="3.5" y="5" width="17" height="15.5" fill="none" stroke="currentColor" stroke-width="2"/>
    <path d="M7 3.5v4M17 3.5v4M3.5 10.5h17" fill="none" stroke="currentColor" stroke-width="2"/>
    <rect x="7" y="13" width="4" height="4" fill="currentColor"/>
  </symbol>
  <symbol id="icon-stats" viewBox="0 0 24 24">
    <path d="M5 19.5V11M12 19.5V5M19 19.5v-8" fill="none" stroke="currentColor" stroke-width="2.4" stroke-linecap="square"/>
  </symbol>
  <symbol id="icon-pay" viewBox="0 0 24 24">
    <rect x="3.5" y="6" width="17" height="12" fill="none" stroke="currentColor" stroke-width="2"/>
    <path d="M8.5 12h7M12 9v6" fill="none" stroke="currentColor" stroke-width="2"/>
  </symbol>
</svg>
